nColumns=19
nRows=97
DataType=double
version=3
OpenSimVersion=4.1
endheader
time	ground_force_calcn_r_vx	ground_force_calcn_r_vy	ground_force_calcn_r_vz	ground_force_calcn_r_px	ground_force_calcn_r_py	ground_force_calcn_r_pz	ground_force_calcn_r_mx	ground_force_calcn_r_my	ground_force_calcn_r_mz	ground_force_calcn_l_vx	ground_force_calcn_l_vy	ground_force_calcn_l_vz	ground_force_calcn_l_px	ground_force_calcn_l_py	ground_force_calcn_l_pz	ground_force_calcn_l_mx	ground_force_calcn_l_my	ground_force_calcn_l_mz
3.35	0	0	0	0	0	0	0	0	0	-282.649	1537.44	29.5922	0.975559	0	-0.392745	0.0346019	-0.188214	-0.00362268
3.36	0	0	0	0	0	0	0	0	0	-234.891	1657.67	87.0878	0.933736	0	-0.393076	-0.105857	0.747052	0.0392473
3.37	0	0	0	0	0	0	0	0	0	-166.933	1720.88	86.4533	0.891516	0	-0.393586	-0.166143	1.71273	0.0860438
3.38	0	0	0	0	0	0	0	0	0	-90.4009	1718.15	60.2252	0.849005	0	-0.3941	-0.123725	2.35151	0.0824261
3.39	0	0	0	0	0	0	0	0	0	-10.004	1660.58	65.1662	0.805021	0	-0.393966	-0.017165	2.84925	0.111813
3.4	0	0	0	0	0	0	0	0	0	72.6812	1551.26	74.0448	0.75947	0	-0.392702	0.154266	3.29256	0.15716
3.41	0	0	0	0	0	0	0	0	0	147.227	1386.15	47.4157	0.713814	0	-0.39025	0.354054	3.33345	0.114027
3.42	0	0	0	0	0	0	0	0	0	197.056	1172.81	9.32203	0.66999	0	-0.386816	0.446506	2.65746	0.0211227
3.43	0	0	0	0	0	0	0	0	0	214.595	933.127	-6.90346	0.628871	0	-0.382668	0.403144	1.75299	-0.012969
3.44	0	0	0	0	0	0	0	0	0	204.506	688.858	-10.5643	0.58896	0	-0.378013	0.498664	1.6797	-0.0257598
3.45	0	0	0	0	0	0	0	0	0	177.855	457.586	-18.8187	0.545484	0	-0.372816	0.990359	2.54799	-0.104789
3.46	0	0	0	0	0	0	0	0	0	140.33	258.958	-26.7849	0.490043	0	-0.366776	1.43248	2.64342	-0.273418
3.47	0	0	0	0	0	0	0	0	0	91.7644	118.814	-24.9097	0.408882	0	-0.361425	0.567342	0.73458	-0.154007
3.48	0	0	0	0	0	0	0	0	0	0	0	0	0	0	0	0	0	0
3.49	0	0	0	0	0	0	0	0	0	0	0	0	0	0	0	0	0	0
3.5	0	0	0	0	0	0	0	0	0	0	0	0	0	0	0	0	0	0
3.51	0	0	0	0	0	0	0	0	0	0	0	0	0	0	0	0	0	0
3.52	0	0	0	0	0	0	0	0	0	0	0	0	0	0	0	0	0	0
3.53	0	0	0	0	0	0	0	0	0	0	0	0	0	0	0	0	0	0
3.54	0	0	0	0	0	0	0	0	0	0	0	0	0	0	0	0	0	0
3.55	0	0	0	0	0	0	0	0	0	0	0	0	0	0	0	0	0	0
3.56	0	0	0	0	0	0	0	0	0	0	0	0	0	0	0	0	0	0
3.57	0	0	0	0	0	0	0	0	0	0	0	0	0	0	0	0	0	0
3.58	-1.16283	59.0261	-5.49652	0.989249	0	-0.371052	0.00761257	-0.38642	0.0359835	0	0	0	0	0	0	0	0	0
3.59	-13.9351	194.413	-16.6422	0.997282	0	-0.303235	0.0209264	-0.291952	0.0249917	0	0	0	0	0	0	0	0	0
3.6	-34.3768	490.128	-34.9613	0.984696	0	-0.310668	0.0101283	-0.144405	0.0103005	0	0	0	0	0	0	0	0	0
3.61	-74.6932	920.037	-25.1421	0.973557	0	-0.311873	-0.0934598	1.1512	-0.0314591	0	0	0	0	0	0	0	0	0
3.62	-127.13	1293.08	33.3948	0.961027	0	-0.311857	-0.243249	2.47417	0.0638973	0	0	0	0	0	0	0	0	0
3.63	-170.89	1484.24	68.9576	0.944515	0	-0.311134	-0.256716	2.22968	0.10359	0	0	0	0	0	0	0	0	0
3.64	-192.825	1566.5	21.0028	0.921095	0	-0.309483	-0.0177582	0.144266	0.00193425	0	0	0	0	0	0	0	0	0
3.65	-178.918	1632.25	-33.6087	0.889309	0	-0.306692	0.294573	-2.68736	0.0553337	0	0	0	0	0	0	0	0	0
3.66	-135.725	1696.33	-32.7945	0.851395	0	-0.303257	0.388146	-4.85114	0.0937854	0	0	0	0	0	0	0	0	0
3.67	-73.4418	1722.49	-33.4612	0.811382	0	-0.300277	0.240952	-5.65124	0.109781	0	0	0	0	0	0	0	0	0
3.68	-5.34241	1686.48	-66.2368	0.771707	0	-0.298515	0.0173589	-5.47983	0.215221	0	0	0	0	0	0	0	0	0
3.69	58.8823	1592.48	-73.0542	0.73233	0	-0.29793	-0.199287	-5.38977	0.247252	0	0	0	0	0	0	0	0	0
3.7	121.763	1442.5	-37.7473	0.691931	0	-0.298201	-0.513465	-6.08289	0.159177	0	0	0	0	0	0	0	0	0
3.71	182.881	1235	-8.96629	0.649603	0	-0.29918	-1.06219	-7.17303	0.0520773	0	0	0	0	0	0	0	0	0
3.72	217.759	988.931	-1.44934	0.60575	0	-0.300622	-1.66498	-7.56134	0.0110816	0	0	0	0	0	0	0	0	0
3.73	208.453	735.806	4.69228	0.561586	0	-0.301774	-1.85494	-6.54766	-0.0417548	0	0	0	0	0	0	0	0	0
3.74	172.999	500.537	11.4875	0.516814	0	-0.301536	-1.51041	-4.37004	-0.100294	0	0	0	0	0	0	0	0	0
3.75	133.679	297.3	10.9226	0.465977	0	-0.2979	-0.868473	-1.93147	-0.0709609	0	0	0	0	0	0	0	0	0
3.76	91.6157	143.756	2.40044	0.391408	0	-0.281491	-0.130706	-0.205093	-0.00342466	0	0	0	0	0	0	0	0	0
3.77	46.4638	56.2696	-6.20083	0.195121	0	-0.149492	0.374619	0.453679	-0.0499948	0	0	0	0	0	0	0	0	0
3.78	0	0	0	0	0	0	0	0	0	0	0	0	0	0	0	0	0	0
3.79	0	0	0	0	0	0	0	0	0	0	0	0	0	0	0	0	0	0
3.8	0	0	0	0	0	0	0	0	0	0	0	0	0	0	0	0	0	0
3.81	0	0	0	0	0	0	0	0	0	0	0	0	0	0	0	0	0	0
3.82	0	0	0	0	0	0	0	0	0	0	0	0	0	0	0	0	0	0
3.83	0	0	0	0	0	0	0	0	0	0	0	0	0	0	0	0	0	0
3.84	0	0	0	0	0	0	0	0	0	0	0	0	0	0	0	0	0	0
3.85	0	0	0	0	0	0	0	0	0	0	0	0	0	0	0	0	0	0
3.86	0	0	0	0	0	0	0	0	0	-38.4879	103.944	-16.9081	1.04463	0	-0.381374	0.145288	-0.39238	0.0638265
3.87	0	0	0	0	0	0	0	0	0	-61.85	269.843	-21.6671	1.01931	0	-0.376902	0.637069	-2.77944	0.223176
3.88	0	0	0	0	0	0	0	0	0	-71.6199	546.687	1.00919	1.00899	0	-0.375959	0.390133	-2.97796	-0.00549736
3.89	0	0	0	0	0	0	0	0	0	-91.7992	843.665	43.7075	0.999649	0	-0.375373	0.191987	-1.76443	-0.0914092
3.9	0	0	0	0	0	0	0	0	0	-146.126	1028.44	66.6828	0.989226	0	-0.375822	0.144298	-1.01558	-0.0658486
3.91	0	0	0	0	0	0	0	0	0	-211.045	1110.99	32.1628	0.973948	0	-0.377081	0.253472	-1.33434	-0.0386286
3.92	0	0	0	0	0	0	0	0	0	-250.911	1205.74	-11.1523	0.949455	0	-0.378152	0.441225	-2.12029	0.0196113
3.93	0	0	0	0	0	0	0	0	0	-245.56	1357.3	12.4341	0.91547	0	-0.378388	0.48088	-2.65801	-0.0243498
3.94	0	0	0	0	0	0	0	0	0	-205.733	1516.83	62.1745	0.875921	0	-0.378282	0.351594	-2.59224	-0.106255
3.95	0	0	0	0	0	0	0	0	0	-145.429	1618.32	64.2651	0.834319	0	-0.378575	0.169769	-1.88917	-0.0750209
3.96	0	0	0	0	0	0	0	0	0	-72.1462	1648.81	38.0061	0.791756	0	-0.379122	0.0315002	-0.719897	-0.0165941
3.97	0	0	0	0	0	0	0	0	0	7.58152	1625.9	39.5542	0.748157	0	-0.379166	0.00237838	0.510057	0.0124084
3.98	0	0	0	0	0	0	0	0	0	85.3481	1551.9	54.8728	0.703584	0	-0.378202	0.0733551	1.33383	0.0471621
3.99	0	0	0	0	0	0	0	0	0	155.381	1419.56	42.0942	0.658605	0	-0.376233	0.169701	1.55039	0.0459737
4	0	0	0	0	0	0	0	0	0	208.85	1232.25	12.3057	0.614142	0	-0.373467	0.222056	1.31017	0.0130838
4.01	0	0	0	0	0	0	0	0	0	237.084	1009.64	-4.80159	0.571267	0	-0.370056	0.244418	1.04087	-0.00495014
4.02	0	0	0	0	0	0	0	0	0	234.514	777.597	-9.37435	0.530391	0	-0.366105	0.383684	1.27221	-0.0153372
4.03	0	0	0	0	0	0	0	0	0	206.186	552.327	-12.6183	0.489467	0	-0.361717	0.791419	2.12003	-0.0484338
4.04	0	0	0	0	0	0	0	0	0	166.035	346.416	-15.9828	0.441549	0	-0.356835	1.3142	2.74194	-0.126507
4.05	0	0	0	0	0	0	0	0	0	119.437	183.605	-16.4362	0.370257	0	-0.35132	1.28198	1.97073	-0.176419
4.06	0	0	0	0	0	0	0	0	0	68.4922	82.4438	-10.0175	0.236654	0	-0.340555	0.15347	0.184732	-0.0224461
4.07	0	0	0	0	0	0	0	0	0	0	0	0	0	0	0	0	0	0
4.08	0	0	0	0	0	0	0	0	0	0	0	0	0	0	0	0	0	0
4.09	0	0	0	0	0	0	0	0	0	0	0	0	0	0	0	0	0	0
4.1	0	0	0	0	0	0	0	0	0	0	0	0	0	0	0	0	0	0
4.11	0	0	0	0	0	0	0	0	0	0	0	0	0	0	0	0	0	0
4.12	0	0	0	0	0	0	0	0	0	0	0	0	0	0	0	0	0	0
4.13	0	0	0	0	0	0	0	0	0	0	0	0	0	0	0	0	0	0
4.14	-28.1431	72.7951	-10.0331	1.1589	0	-0.162931	0.207556	-0.536865	0.073994	0	0	0	0	0	0	0	0	0
4.15	-52.7348	203.605	-20.2878	1.0027	0	-0.29268	0.121514	-0.469156	0.0467483	0	0	0	0	0	0	0	0	0
4.16	-67.9968	458.815	-20.1319	0.984186	0	-0.297006	-0.0261826	0.17667	-0.00775191	0	0	0	0	0	0	0	0	0
4.17	-81.6651	793.43	-1.1506	0.970867	0	-0.296995	-0.136717	1.32829	-0.00192623	0	0	0	0	0	0	0	0	0
4.18	-125.283	1062.25	32.2464	0.95816	0	-0.295754	-0.232182	1.96863	0.059761	0	0	0	0	0	0	0	0	0
4.19	-193.055	1194.43	38.1507	0.942699	0	-0.293619	-0.260848	1.61387	0.0515478	0	0	0	0	0	0	0	0	0
4.2	-243.18	1276.2	-10.7978	0.920488	0	-0.290452	-0.135175	0.709396	-0.0060021	0	0	0	0	0	0	0	0	0
4.21	-241.923	1384.98	-54.5813	0.889669	0	-0.286381	0.0267247	-0.152995	0.00602945	0	0	0	0	0	0	0	0	0
4.22	-204.297	1506.96	-48.1569	0.852586	0	-0.282014	0.110951	-0.818405	0.0261533	0	0	0	0	0	0	0	0	0
4.23	-153.67	1589.98	-44.6838	0.812726	0	-0.278102	0.133444	-1.38071	0.0388025	0	0	0	0	0	0	0	0	0
4.24	-94.0623	1612.98	-79.1598	0.771412	0	-0.274999	0.11072	-1.89862	0.0931782	0	0	0	0	0	0	0	0	0
4.25	-26.6275	1589.25	-101.011	0.728382	0	-0.272633	0.0415751	-2.48138	0.157714	0	0	0	0	0	0	0	0	0
4.26	46.2162	1530.42	-82.8585	0.683565	0	-0.270976	-0.102364	-3.38972	0.183523	0	0	0	0	0	0	0	0	0
4.27	115.229	1431.25	-62.7206	0.637719	0	-0.270241	-0.382142	-4.74654	0.208005	0	0	0	0	0	0	0	0	0
4.28	171.073	1283.04	-52.4265	0.592137	0	-0.27059	-0.829525	-6.2214	0.254213	0	0	0	0	0	0	0	0	0
4.29	209.397	1091.98	-33.6375	0.548271	0	-0.271796	-1.35827	-7.08327	0.218193	0	0	0	0	0	0	0	0	0
4.3	221.605	873.863	-9.20377	0.506976	0	-0.273171	-1.69218	-6.67282	0.07028	0	0	0	0	0	0	0	0	0
4.31	202.928	643.119	8.38541	0.467396	0	-0.273776	-1.59287	-5.04814	-0.0658209	0	0	0	0	0	0	0	0	0
